<svg xmlns="http://www.w3.org/2000/svg" width="19.25" height="22" viewBox="0 0 19.25 22">
  <path id="cake" d="M19.25,16.5c-1.2,0-1.343-1.375-3.2-1.375S14.037,16.5,12.837,16.5s-1.352-1.375-3.212-1.375c-1.841,0-2.029,1.375-3.2,1.375-1.209,0-1.341-1.375-3.212-1.375S1.207,16.5,0,16.5V13.063A2.063,2.063,0,0,1,2.063,11H2.75V4.813H5.5V11H8.25V4.813H11V11h2.75V4.813H16.5V11h.688a2.063,2.063,0,0,1,2.063,2.063Zm0,5.5H0V17.875c1.863,0,2.01-1.375,3.212-1.375s1.343,1.375,3.212,1.375c1.841,0,2.029-1.375,3.2-1.375,1.209,0,1.341,1.375,3.212,1.375s2.01-1.375,3.212-1.375c1.181,0,1.343,1.375,3.2,1.375ZM4.125,4.125A1.371,1.371,0,0,1,2.75,2.75c0-1.332,1.375-.988,1.375-2.75C4.641,0,5.5,1.268,5.5,2.406S4.888,4.125,4.125,4.125Zm5.5,0A1.371,1.371,0,0,1,8.25,2.75c0-1.332,1.375-.988,1.375-2.75C10.141,0,11,1.268,11,2.406S10.388,4.125,9.625,4.125Zm5.5,0A1.371,1.371,0,0,1,13.75,2.75c0-1.332,1.375-.988,1.375-2.75C15.641,0,16.5,1.268,16.5,2.406S15.888,4.125,15.125,4.125Z" fill="#4dacff"/>
</svg>
