<svg xmlns="http://www.w3.org/2000/svg" width="23" height="23" viewBox="0 0 23 23">
  <path id="community" d="M12.43,6.4a6.883,6.883,0,1,0,6.935,6.761A6.918,6.918,0,0,0,12.43,6.4Zm3.311,6.517a11.612,11.612,0,0,0-.174-1.952c1.708.383,2.892,1.115,3.067,1.952Zm-.7,0H12.779V10.653a12.566,12.566,0,0,1,2.056.174A9.889,9.889,0,0,1,15.044,12.918ZM12.779,9.991V7.168c.732.244,1.464,1.324,1.882,2.927A15.7,15.7,0,0,0,12.779,9.991Zm-.7-2.823V9.991a16.13,16.13,0,0,0-1.917.209C10.583,8.527,11.35,7.447,12.082,7.168Zm0,3.52v2.23H9.817a12.037,12.037,0,0,1,.174-1.986C10.688,10.827,11.385,10.723,12.082,10.688ZM9.12,12.918H6.332c.453-.941,1.952-1.533,2.962-1.812A15.205,15.205,0,0,0,9.12,12.918Zm0,.7a11.613,11.613,0,0,0,.174,1.952c-1.708-.383-2.892-1.115-3.067-1.952Zm.7,0h2.265v2.23a18.468,18.468,0,0,1-2.056-.139A17.663,17.663,0,0,1,9.817,13.615Zm2.265,2.962V19.4c-.732-.244-1.464-1.324-1.882-2.927C10.792,16.508,11.42,16.577,12.082,16.577Zm.7,2.823V16.577a16.13,16.13,0,0,0,1.917-.209C14.312,18.006,13.545,19.121,12.779,19.4Zm0-3.555v-2.23h2.265A12.037,12.037,0,0,1,14.87,15.6,13.214,13.214,0,0,1,12.779,15.845Zm2.962-2.23h2.788c-.453.941-1.952,1.533-2.962,1.812A7.62,7.62,0,0,0,15.741,13.615Zm2.683-2.161a7.037,7.037,0,0,0-2.962-1.22,6.971,6.971,0,0,0-1.289-2.892A6.284,6.284,0,0,1,18.424,11.455ZM10.758,7.342a6.993,6.993,0,0,0-1.324,3.032A7.532,7.532,0,0,0,6.4,11.768,6.272,6.272,0,0,1,10.758,7.342ZM6.471,15.114a7.037,7.037,0,0,0,2.962,1.22,6.971,6.971,0,0,0,1.289,2.892A6.355,6.355,0,0,1,6.471,15.114Zm7.667,4.112a6.993,6.993,0,0,0,1.324-3.032A7.532,7.532,0,0,0,18.494,14.8,6.272,6.272,0,0,1,14.138,19.226ZM3.683,4.555A1.815,1.815,0,0,0,5.5,2.777,1.815,1.815,0,0,0,3.683,1a1.777,1.777,0,1,0,0,3.555Zm0-2.858A1.116,1.116,0,0,1,4.8,2.777a1.094,1.094,0,0,1-1.115,1.08A1.064,1.064,0,0,1,2.6,2.777,1.086,1.086,0,0,1,3.683,1.7ZM1.348,8.423h4.67a.329.329,0,0,0,.348-.348V6.3A1.562,1.562,0,0,0,4.8,4.729H2.568A1.562,1.562,0,0,0,1,6.3V8.074A.329.329,0,0,0,1.348,8.423ZM1.7,6.3a.863.863,0,0,1,.871-.871H4.8A.863.863,0,0,1,5.67,6.3V7.726H1.7Zm19.62-1.742a1.815,1.815,0,0,0,1.812-1.777,1.812,1.812,0,0,0-3.624,0A1.815,1.815,0,0,0,21.317,4.555Zm0-2.858a1.116,1.116,0,0,1,1.115,1.08,1.116,1.116,0,0,1-2.23,0A1.116,1.116,0,0,1,21.317,1.7Zm1.115,3.032H20.2A1.562,1.562,0,0,0,18.633,6.3V8.074a.329.329,0,0,0,.348.348h4.67A.329.329,0,0,0,24,8.074V6.3A1.562,1.562,0,0,0,22.432,4.729Zm.871,3H19.33V6.3a.863.863,0,0,1,.871-.871h2.23A.863.863,0,0,1,23.3,6.3ZM1.906,18.355a1.792,1.792,0,0,0,1.812,1.777,1.778,1.778,0,1,0,0-3.555A1.792,1.792,0,0,0,1.906,18.355Zm1.777-1.08A1.116,1.116,0,0,1,4.8,18.355a1.094,1.094,0,0,1-1.115,1.08,1.094,1.094,0,0,1-1.115-1.08A1.116,1.116,0,0,1,3.683,17.274ZM4.8,20.306H2.568A1.562,1.562,0,0,0,1,21.874v1.777A.329.329,0,0,0,1.348,24h4.67a.329.329,0,0,0,.348-.348V21.874A1.562,1.562,0,0,0,4.8,20.306Zm.871,3H1.7V21.874A.863.863,0,0,1,2.568,21H4.8a.863.863,0,0,1,.871.871ZM19.5,18.355a1.812,1.812,0,1,0,1.812-1.777A1.792,1.792,0,0,0,19.5,18.355Zm1.812-1.08a1.116,1.116,0,0,1,1.115,1.08,1.116,1.116,0,0,1-2.23,0A1.116,1.116,0,0,1,21.317,17.274Zm1.115,3.032H20.2a1.562,1.562,0,0,0-1.568,1.568v1.777a.329.329,0,0,0,.348.348h4.67A.329.329,0,0,0,24,23.652V21.874A1.562,1.562,0,0,0,22.432,20.306Zm.871,3H19.33V21.874A.863.863,0,0,1,20.2,21h2.23a.863.863,0,0,1,.871.871ZM7.552,5.077h9.723a.348.348,0,0,0,0-.7H7.552a.329.329,0,0,0-.348.348A.349.349,0,0,0,7.552,5.077Zm9.723,16.448H7.552a.348.348,0,1,0,0,.7h9.723a.348.348,0,0,0,0-.7ZM21.7,15.009V9.468a.348.348,0,1,0-.7,0v5.541a.329.329,0,0,0,.348.348A.349.349,0,0,0,21.7,15.009Zm-17.6.174V9.642a.329.329,0,0,0-.348-.348.329.329,0,0,0-.348.348v5.541a.329.329,0,0,0,.348.348A.329.329,0,0,0,4.1,15.183Z" transform="translate(-1 -1)" fill="#4dacff"/>
</svg>
