<svg xmlns="http://www.w3.org/2000/svg" width="21" height="27" viewBox="0 0 21 27">
  <g id="delete" transform="translate(-2505 90)">
    <path id="Path_85" data-name="Path 85" d="M6.5,27a3.009,3.009,0,0,0,3,3h12a3.009,3.009,0,0,0,3-3V12a3.009,3.009,0,0,0-3-3H9.5a3.009,3.009,0,0,0-3,3Zm18-22.5H20.75L19.685,3.435A1.513,1.513,0,0,0,18.635,3h-6.27a1.513,1.513,0,0,0-1.05.435L10.25,4.5H6.5a1.5,1.5,0,1,0,0,3h18a1.5,1.5,0,1,0,0-3Z" transform="translate(2500 -93)" fill="#9c0000"/>
    <g id="Group_47" data-name="Group 47" transform="translate(-1)">
      <line id="Line_6" data-name="Line 6" y2="11" transform="translate(2511.5 -78.5)" fill="none" stroke="#fff" stroke-linecap="round" stroke-width="2"/>
      <line id="Line_7" data-name="Line 7" y2="11" transform="translate(2516.5 -78.5)" fill="none" stroke="#fff" stroke-linecap="round" stroke-width="2"/>
      <line id="Line_8" data-name="Line 8" y2="11" transform="translate(2521.5 -78.5)" fill="none" stroke="#fff" stroke-linecap="round" stroke-width="2"/>
    </g>
  </g>
</svg>
