<svg xmlns="http://www.w3.org/2000/svg" width="126" height="123" viewBox="0 0 126 123">
  <g id="dots" transform="translate(-6 -1732)">
    <circle id="Ellipse_12" data-name="Ellipse 12" cx="12" cy="12" r="12" transform="translate(18 1740)" fill="#e3e7eb"/>
    <circle id="Ellipse_13" data-name="Ellipse 13" cx="5" cy="5" r="5" transform="translate(62 1760)" fill="#e3e7eb"/>
    <circle id="Ellipse_14" data-name="Ellipse 14" cx="5.5" cy="5.5" r="5.5" transform="translate(51 1732)" fill="#e3e7eb"/>
    <circle id="Ellipse_15" data-name="Ellipse 15" cx="11.5" cy="11.5" r="11.5" transform="translate(109 1752)" fill="#e3e7eb"/>
    <circle id="Ellipse_16" data-name="Ellipse 16" cx="7.5" cy="7.5" r="7.5" transform="translate(86 1732)" fill="#e3e7eb"/>
    <circle id="Ellipse_17" data-name="Ellipse 17" cx="3.5" cy="3.5" r="3.5" transform="translate(94 1775)" fill="#e3e7eb"/>
    <circle id="Ellipse_18" data-name="Ellipse 18" cx="8" cy="8" r="8" transform="translate(116 1795)" fill="#e3e7eb"/>
    <circle id="Ellipse_19" data-name="Ellipse 19" cx="12" cy="12" r="12" transform="translate(57 1792)" fill="#e3e7eb"/>
    <circle id="Ellipse_20" data-name="Ellipse 20" cx="6" cy="6" r="6" transform="translate(18 1795)" fill="#e3e7eb"/>
    <circle id="Ellipse_21" data-name="Ellipse 21" cx="6" cy="6" r="6" transform="translate(6 1765)" fill="#e3e7eb"/>
    <circle id="Ellipse_22" data-name="Ellipse 22" cx="4.5" cy="4.5" r="4.5" transform="translate(42 1779)" fill="#e3e7eb"/>
    <circle id="Ellipse_23" data-name="Ellipse 23" cx="10" cy="10" r="10" transform="translate(101 1820)" fill="#e3e7eb"/>
    <circle id="Ellipse_24" data-name="Ellipse 24" cx="4.5" cy="4.5" r="4.5" transform="translate(48 1819)" fill="#e3e7eb"/>
    <circle id="Ellipse_25" data-name="Ellipse 25" cx="7.5" cy="7.5" r="7.5" transform="translate(72 1828)" fill="#e3e7eb"/>
    <circle id="Ellipse_26" data-name="Ellipse 26" cx="12" cy="12" r="12" transform="translate(6 1816)" fill="#e3e7eb"/>
    <circle id="Ellipse_27" data-name="Ellipse 27" cx="4.5" cy="4.5" r="4.5" transform="translate(44 1846)" fill="#e3e7eb"/>
  </g>
</svg>
