<svg xmlns="http://www.w3.org/2000/svg" width="38.889" height="25" viewBox="0 0 38.889 25">
  <path id="eye" d="M36.111,396.5a21.333,21.333,0,0,0-8.268-7.661,9.484,9.484,0,0,1,1.324,4.883,9.363,9.363,0,0,1-2.854,6.868,9.363,9.363,0,0,1-6.868,2.854,9.363,9.363,0,0,1-6.868-2.854,9.363,9.363,0,0,1-2.854-6.868,9.484,9.484,0,0,1,1.324-4.883A21.333,21.333,0,0,0,2.778,396.5a22.4,22.4,0,0,0,7.237,7.086,18.179,18.179,0,0,0,18.859,0A22.4,22.4,0,0,0,36.111,396.5Zm-15.625-8.333a1.037,1.037,0,0,0-1.042-1.042,6.632,6.632,0,0,0-6.6,6.6,1.042,1.042,0,1,0,2.083,0,4.52,4.52,0,0,1,4.514-4.514,1.037,1.037,0,0,0,1.042-1.042Zm18.4,8.333a3,3,0,0,1-.434,1.5,23.022,23.022,0,0,1-8.171,8,21.017,21.017,0,0,1-21.68-.011A23.174,23.174,0,0,1,.434,398a2.8,2.8,0,0,1,0-2.995A23.173,23.173,0,0,1,8.6,387.016a20.985,20.985,0,0,1,21.68,0A23.173,23.173,0,0,1,38.455,395,3,3,0,0,1,38.889,396.5Z" transform="translate(0 -384)" fill="#9e9e9e"/>
</svg>
