<svg id="fire" xmlns="http://www.w3.org/2000/svg" width="18" height="24" viewBox="0 0 18 24">
  <path id="Path_18" data-name="Path 18" d="M12,24a8.963,8.963,0,0,1-9-9c0-4,2.4-8.2,3.4-9.8C7,4.3,9.8,0,12,0a.945.945,0,0,1,1,1,.945.945,0,0,1-1,1c-1.4.2-7,7.4-7,13a7,7,0,0,0,14,0,12.972,12.972,0,0,0-.3-2.6A21.548,21.548,0,0,0,16,6.3a1.012,1.012,0,1,1,1.7-1.1,26.143,26.143,0,0,1,3,6.7A17.967,17.967,0,0,1,21,15a8.963,8.963,0,0,1-9,9Z" transform="translate(-3)" fill="#4dacff"/>
  <path id="Path_19" data-name="Path 19" d="M15,9.9a1.136,1.136,0,0,1-.8-.3A12.911,12.911,0,0,1,11,1a1,1,0,0,1,2,0,11.335,11.335,0,0,0,2.7,7.3.972.972,0,0,1-.1,1.4,1.072,1.072,0,0,1-.6.2Z" transform="translate(-3)" fill="#4dacff"/>
  <path id="Path_20" data-name="Path 20" d="M15,9.9a.908.908,0,0,1-.7-.3.967.967,0,0,1,0-1.4,6.051,6.051,0,0,0,1.5-2.7A1.028,1.028,0,0,1,17,4.8.949.949,0,0,1,17.7,6a8.561,8.561,0,0,1-2,3.6,1.08,1.08,0,0,1-.7.3ZM12,24a4.951,4.951,0,0,1-5-5c0-3.1,3.1-8,5-8a.945.945,0,0,1,1,1,1.063,1.063,0,0,1-.9,1c-.7.4-3.1,3.6-3.1,6a3,3,0,0,0,6,0,7.385,7.385,0,0,0-.2-1.2,10.411,10.411,0,0,0-1.3-2.9,1.012,1.012,0,1,1,1.7-1.1,13.624,13.624,0,0,1,1.6,3.5A9.852,9.852,0,0,1,17,19,4.951,4.951,0,0,1,12,24Z" transform="translate(-3)" fill="#4dacff"/>
  <path id="Path_21" data-name="Path 21" d="M13.5,17a1.136,1.136,0,0,1-.8-.3A7.539,7.539,0,0,1,11,12a1,1,0,0,1,2,0,4.971,4.971,0,0,0,1.2,3.3.972.972,0,0,1-.1,1.4.713.713,0,0,1-.6.3Z" transform="translate(-3)" fill="#4dacff"/>
  <path id="Path_22" data-name="Path 22" d="M13.5,17a.908.908,0,0,1-.7-.3.967.967,0,0,1,0-1.4,2.384,2.384,0,0,0,.6-1.1.982.982,0,1,1,1.9.5,3.738,3.738,0,0,1-1.2,2A.713.713,0,0,1,13.5,17Z" transform="translate(-3)" fill="#4dacff"/>
</svg>
