<svg xmlns="http://www.w3.org/2000/svg" width="830.211" height="551.732" viewBox="0 0 830.211 551.732">
  <g id="forgot" transform="translate(0 0)">
    <path id="Path_53" data-name="Path 53" d="M460.669,484.489c28.451-50.049,82.723-88.479,140.174-84.777a265.251,265.251,0,0,0-69.762,168.221c-.943,24.126.52,51.059-15.5,69.125-9.967,11.241-25.2,16.685-40.182,17.827s-29.957-1.565-44.737-4.26l-3.585,1.1C425.711,594.172,432.218,534.539,460.669,484.489Z" transform="translate(-162.873 -166.963)" fill="#f0f0f0"/>
    <path id="Path_54" data-name="Path 54" d="M600.924,400.761c-42.484,20.452-78.71,54.609-100.948,96.266-4.808,9.006-8.9,18.561-10.687,28.663s-.539,19.727,2.913,29.326c3.156,8.776,7.4,17.386,8.368,26.776,1.02,9.9-2.622,19.152-9.177,26.5-8.02,8.986-18.792,14.555-29.514,19.635-11.905,5.64-24.361,11.309-32.793,21.835-1.022,1.275-2.941-.384-1.921-1.658,14.671-18.314,39.784-21.756,57.2-36.509,8.126-6.884,14.227-16.258,13.841-27.242-.337-9.605-4.706-18.489-7.978-27.346-3.436-9.3-5.149-18.653-3.917-28.569,1.26-10.144,4.989-19.878,9.545-28.968A219.955,219.955,0,0,1,536.3,443.879a230.74,230.74,0,0,1,63.8-45.52c1.468-.707,2.28,1.7.822,2.4Z" transform="translate(-162.869 -166.806)" fill="#fff"/>
    <path id="Path_55" data-name="Path 55" d="M516.065,489.134A34.015,34.015,0,0,1,505.8,446.3c.743-1.454,3.037-.367,2.293,1.088a31.5,31.5,0,0,0,9.63,39.824c1.323.957-.343,2.873-1.658,1.921Z" transform="translate(-172.443 -172.835)" fill="#fff"/>
    <path id="Path_56" data-name="Path 56" d="M499.058,569.5a65.56,65.56,0,0,0,41.51-23.661c1.026-1.272,2.946.388,1.921,1.658a68.193,68.193,0,0,1-43.245,24.533c-1.619.232-1.8-2.3-.186-2.531Z" transform="translate(-171.91 -185.528)" fill="#fff"/>
    <path id="Path_57" data-name="Path 57" d="M574.6,432.64a19.254,19.254,0,0,0,17.209,6.135c1.616-.252,1.791,2.28.186,2.531a21.576,21.576,0,0,1-19.053-6.745,1.311,1.311,0,0,1-.131-1.789,1.275,1.275,0,0,1,1.789-.131Z" transform="translate(-181.4 -171.145)" fill="#fff"/>
    <path id="Path_58" data-name="Path 58" d="M714.83,576.055c-1,.186-2.009.372-3.022.578a253.565,253.565,0,0,0-39.645,10.959c-1,.349-2.014.718-3,1.1a267.314,267.314,0,0,0-84.073,51.163,259.589,259.589,0,0,0-27.23,28.535c-11.517,14.071-22.885,30.245-37.935,39.42a44.531,44.531,0,0,1-4.846,2.627l-86.7-35.962c-.156-.181-.321-.342-.478-.523l-3.527-1.278c.393-.555.813-1.123,1.207-1.679.227-.323.473-.638.7-.962.157-.213.316-.426.446-.627.052-.071.105-.142.149-.193.13-.2.272-.374.393-.555q3.508-4.77,7.1-9.506c.008-.02.008-.02.036-.032,18.285-24.015,38.736-46.715,61.981-65.589.7-.568,1.406-1.155,2.146-1.707a247.716,247.716,0,0,1,33.483-22.65,219.009,219.009,0,0,1,19.862-9.822,182.1,182.1,0,0,1,55.172-14.071c37.906-3.52,76.515,5.122,105.588,28.935C713.37,574.824,714.1,575.426,714.83,576.055Z" transform="translate(-162.55 -185.419)" fill="#f0f0f0"/>
    <path id="Path_59" data-name="Path 59" d="M714.355,580.818c-46.235-9.249-95.724-3.787-138.56,16.086-9.261,4.3-18.282,9.461-25.79,16.452s-12.307,15.427-15.33,25.17c-2.764,8.907-4.559,18.338-9.44,26.417-5.145,8.517-13.624,13.713-23.28,15.631-11.814,2.346-23.767.308-35.387-2.092-12.9-2.665-26.26-5.637-39.33-2.309-1.584.4-2.117-2.078-.535-2.48,22.74-5.789,44.864,6.581,67.65,5.287,10.633-.6,21.148-4.416,27.453-13.418,5.514-7.872,7.374-17.6,10.094-26.638,2.856-9.495,7.119-17.993,14.073-25.169,7.114-7.34,15.951-12.868,25.062-17.382A219.957,219.957,0,0,1,636.8,576.34a230.738,230.738,0,0,1,78.345,2.066c1.6.32.8,2.729-.789,2.412Z" transform="translate(-162.726 -189.162)" fill="#fff"/>
    <path id="Path_60" data-name="Path 60" d="M613.018,586.1a34.015,34.015,0,0,1,17.593-40.38c1.469-.713,2.646,1.535,1.176,2.249A31.5,31.5,0,0,0,615.5,585.566c.479,1.561-2,2.087-2.48.535Z" transform="translate(-186.366 -185.554)" fill="#fff"/>
    <path id="Path_61" data-name="Path 61" d="M551.189,642.529a65.561,65.561,0,0,0,47.388,6.1c1.585-.4,2.119,2.083.535,2.48a68.193,68.193,0,0,1-49.3-6.448C548.382,643.872,549.765,641.744,551.189,642.529Z" transform="translate(-178.433 -197.867)" fill="#fff"/>
    <path id="Path_62" data-name="Path 62" d="M696.031,575.929a19.254,19.254,0,0,0,10.047,15.26c1.442.771.057,2.9-1.375,2.132a21.576,21.576,0,0,1-11.152-16.857,1.311,1.311,0,0,1,.972-1.508,1.275,1.275,0,0,1,1.508.972Z" transform="translate(-196.795 -189.288)" fill="#fff"/>
    <path id="Path_63" data-name="Path 63" d="M511.507,626.642c-12.142-58.708-27.319-78.282-27.319-78.282l-5.8-4.5-6.973-5.416.034-.7-1.654-.562-.388-.3-.637-.489-.1.11-.216.224L436.9,526.007l-40.03-13.6-18.536-24.094a32.06,32.06,0,0,0-25.648-12.51l-59.2.438a32.061,32.061,0,0,0-21.566,8.554l-38.911,36.093-60.63,28.957-.1-.1-.637.455-9.368,4.479.387,2.012-5.8,4.184s-15.177,18.213-27.319,72.84c-3.089,13.9-4.609,43.717-5.158,80.459A14.025,14.025,0,0,0,138.4,728.408H502.661a14.027,14.027,0,0,0,14.019-14.218C516.144,674.208,514.624,641.716,511.507,626.642Z" transform="translate(-124.382 -176.676)" fill="#2d2d2d"/>
    <path id="Path_64" data-name="Path 64" d="M608.623,191.732a47.505,47.505,0,1,0,0,95.011H962.654a47.505,47.505,0,1,0,0-95.011Z" transform="translate(-179.948 -140.533)" fill="#e5e5e5"/>
    <path id="Path_65" data-name="Path 65" d="M610.024,202.747a37.891,37.891,0,0,0,0,75.783H964.056a37.891,37.891,0,0,0,0-75.783Z" transform="translate(-181.35 -141.934)" fill="#fff"/>
    <path id="ab6171fa-7d69-4734-b81c-8dff60f9761b" d="M77.557,0A77.557,77.557,0,1,1,0,77.557,77.557,77.557,0,0,1,77.557,0Z" transform="translate(130.444 121.777)" fill="#ffb8b8"/>
    <path id="Path_66" data-name="Path 66" d="M339.827,445.653q-.5-1.094-.991-2.2c.127,0,.253.022.38.026Z" transform="translate(-151.667 -172.56)" fill="#2f2e41"/>
    <path id="Path_67" data-name="Path 67" d="M266.94,271.281c3.923-3.129,8.507-6.008,13.522-5.846s10.1,4.691,9.062,9.6a79.7,79.7,0,0,1,95.913-35.965c12.465,4.4,24.688,13.2,27.552,26.1.735,3.312.893,6.945,2.961,9.634,2.608,3.391,7.6,4.159,11.705,2.965l.123-.036a3.664,3.664,0,0,1,4.428,5.173l-3.527,6.578a28.263,28.263,0,0,0,13.465-.286,3.661,3.661,0,0,1,3.888,5.7c-11.629,15.967-31.058,26.277-50.885,26.156-14.092-.086-28.328-4.943-42.043-1.7a36.52,36.52,0,0,0-24.563,51.267c-4.213-4.608-12.358-3.517-16.667,1s-5.425,11.262-4.991,17.491c.664,9.527,4.4,18.5,8.332,27.241-32.992-1.039-64.2-24.182-74.7-55.484C229.967,329.431,241.022,291.957,266.94,271.281Z" transform="translate(-138.653 -145.977)" fill="#2d2d2d"/>
    <path id="Path_68" data-name="Path 68" d="M87.464,495.253l21.753,118.354,13.052,1.136Z" transform="translate(-11.128 -63.012)" opacity="0.2"/>
    <path id="Path_69" data-name="Path 69" d="M356.933,485.026,335.18,612.22l-13.052,1.222Z" transform="translate(-40.985 -61.71)" opacity="0.2"/>
    <path id="Path_70" data-name="Path 70" d="M286.256,218.541c-4.171,1.742-8.523-.167-10.348-4.538-1.853-4.438-.122-8.943,4.115-10.712s8.513.144,10.4,4.653C292.274,212.385,290.562,216.743,286.256,218.541Zm-7.99-23.985-3.316,1.385a3.578,3.578,0,0,1-4.544-1.667l-.164-.321c-3.568-6.435-3.977-14.256-1.208-23.234,2.565-8.053,3.63-13.717,1.488-18.848-2.477-5.933-7.767-7.791-14.513-5.1-2.616,1.092-3.449,1.075-5.508,3.118a4.727,4.727,0,0,1-3.422,1.391,4.569,4.569,0,0,1-3.27-1.434,4.667,4.667,0,0,1-.032-6.369,36.25,36.25,0,0,1,12.259-8.417c14.494-6.052,21.79,2.883,25.129,10.879,3.266,7.821,1.429,15.078-1.523,24.475-2.474,7.809-2.329,13.6.48,19.349a3.562,3.562,0,0,1-1.855,4.792Z" transform="translate(-139.415 -133.069)" fill="#4dacff"/>
    <path id="Path_71" data-name="Path 71" d="M694.633,271.627H624.195a1.7,1.7,0,1,1,0-3.393h70.439a1.7,1.7,0,0,1,0,3.393Z" transform="translate(-187.758 -150.266)" fill="#4dacff"/>
    <path id="Path_72" data-name="Path 72" d="M797.014,272.275H726.576a1.7,1.7,0,1,1,0-3.393h70.439a1.7,1.7,0,0,1,0,3.393Z" transform="translate(-200.784 -150.349)" fill="#4dacff"/>
    <path id="Path_73" data-name="Path 73" d="M899.4,272.923H828.958a1.7,1.7,0,0,1,0-3.393H899.4a1.7,1.7,0,1,1,0,3.393Z" transform="translate(-213.81 -150.431)" fill="#4dacff"/>
    <path id="Path_74" data-name="Path 74" d="M1001.774,273.571H931.336a1.7,1.7,0,0,1,0-3.393h70.439a1.7,1.7,0,1,1,0,3.393Z" transform="translate(-226.836 -150.514)" fill="#4dacff"/>
    <circle id="Ellipse_28" data-name="Ellipse 28" cx="13.092" cy="13.092" r="13.092" transform="translate(458.409 79.563)" fill="#4dacff"/>
    <circle id="Ellipse_29" data-name="Ellipse 29" cx="13.092" cy="13.092" r="13.092" transform="translate(548.304 79.563)" fill="#4dacff"/>
    <circle id="Ellipse_30" data-name="Ellipse 30" cx="13.092" cy="13.092" r="13.092" transform="translate(638.199 79.563)" fill="#4dacff"/>
    <circle id="Ellipse_31" data-name="Ellipse 31" cx="13.092" cy="13.092" r="13.092" transform="translate(728.095 79.563)" fill="#4dacff"/>
  </g>
</svg>
