<svg xmlns="http://www.w3.org/2000/svg" width="23.002" height="23.001" viewBox="0 0 23.002 23.001">
  <g id="hide" transform="translate(-0.998 -1)">
    <path id="Path_14" data-name="Path 14" d="M1.767,5.6a.767.767,0,0,0,.767-.767v-2.3h2.3A.767.767,0,1,0,4.833,1H1.767A.767.767,0,0,0,1,1.767V4.833A.767.767,0,0,0,1.767,5.6Zm18.4-3.067h2.3v2.3a.767.767,0,1,0,1.533,0V1.767A.767.767,0,0,0,23.234,1H20.167a.767.767,0,1,0,0,1.533ZM4.833,22.467h-2.3v-2.3a.767.767,0,1,0-1.533,0v3.067A.767.767,0,0,0,1.767,24H4.833a.767.767,0,1,0,0-1.533Zm18.4-3.067a.767.767,0,0,0-.767.767v2.3h-2.3a.767.767,0,1,0,0,1.533h3.067A.767.767,0,0,0,24,23.234V20.167A.767.767,0,0,0,23.234,19.4Zm-3.611,1.311a.77.77,0,1,0,1.089-1.089l-1.533-1.533A13.915,13.915,0,0,0,23.9,12.83a.767.767,0,0,0,0-.705A13.034,13.034,0,0,0,12.5,4.833,11.945,11.945,0,0,0,7.179,6.1l-1.8-1.809A.77.77,0,0,0,4.289,5.378L5.822,6.911h0L8.782,9.871h0l1.089,1.1h0l4.163,4.171h0l1.112,1.112h0l2.66,2.653h0ZM12.5,7.9a4.6,4.6,0,0,1,3.741,7.261l-1.1-1.127a3.042,3.042,0,0,0-4.171-4.171l-1.112-1.1A4.6,4.6,0,0,1,12.5,7.9ZM9.434,12.73a3.067,3.067,0,0,0,2.837,2.837Z" transform="translate(0)" fill="#c4c4c4"/>
    <path id="Path_15" data-name="Path 15" d="M12.5,19.172A4.6,4.6,0,0,1,8.061,13.4L4.542,9.88a14.444,14.444,0,0,0-3.458,4.339.767.767,0,0,0,0,.705A13.034,13.034,0,0,0,12.5,22.239a12.045,12.045,0,0,0,3.772-.621l-2.6-2.607a4.6,4.6,0,0,1-1.173.161Z" transform="translate(0 -2.072)" fill="#c4c4c4"/>
  </g>
</svg>
