<svg xmlns="http://www.w3.org/2000/svg" width="19.776" height="22" viewBox="0 0 19.776 22">
  <path id="home" d="M21.678,8.594h0L15.086,2.815a3.3,3.3,0,0,0-4.395,0L4.1,8.594A3.3,3.3,0,0,0,3,11.078v9.6a3.3,3.3,0,0,0,3.3,3.3H19.48a3.3,3.3,0,0,0,3.3-3.3V11.067a3.3,3.3,0,0,0-1.1-2.472ZM15.086,21.779H10.691V16.285a1.1,1.1,0,0,1,1.1-1.1h2.2a1.1,1.1,0,0,1,1.1,1.1Zm5.493-1.1a1.1,1.1,0,0,1-1.1,1.1h-2.2V16.285a3.3,3.3,0,0,0-3.3-3.3h-2.2a3.3,3.3,0,0,0-3.3,3.3v5.493H6.3a1.1,1.1,0,0,1-1.1-1.1V11.067a1.1,1.1,0,0,1,.374-.824l6.592-5.768a1.1,1.1,0,0,1,1.45,0l6.592,5.768a1.1,1.1,0,0,1,.374.824Z" transform="translate(-3 -1.976)" fill="#4dacff"/>
</svg>
