<svg xmlns="http://www.w3.org/2000/svg" width="27" height="27" viewBox="0 0 27 27">
  <g id="image" transform="translate(-2 -2)">
    <path id="Path_86" data-name="Path 86" d="M6.793,20.571l4.6-6.128a.557.557,0,0,1,.942,0l4.6,6.128c.26.346.119.628-.314.628H7.107c-.433,0-.574-.282-.314-.628ZM4.7,2H26.3A2.7,2.7,0,0,1,29,4.7V26.3A2.7,2.7,0,0,1,26.3,29H4.7A2.7,2.7,0,0,1,2,26.3V4.7A2.7,2.7,0,0,1,4.7,2Zm13.55,8.689-3.636,4.667a.54.54,0,0,0,0,.623l3.712,4.912a.889.889,0,0,0,.629.313h6.207c.433,0,.594-.3.358-.659l-6.358-9.816A.523.523,0,0,0,18.25,10.689Z" fill="#fff" fill-rule="evenodd"/>
  </g>
</svg>
