<svg xmlns="http://www.w3.org/2000/svg" width="28.546" height="23.356" viewBox="0 0 28.546 23.356">
  <path id="ImageLogo" d="M28.6,6H3.946A1.946,1.946,0,0,0,2,7.946V27.41a1.946,1.946,0,0,0,1.946,1.946H28.6a1.946,1.946,0,0,0,1.946-1.946V7.946A1.946,1.946,0,0,0,28.6,6ZM20.412,18.216l4.944-4.82,3.893,3.8v9.654ZM3.946,7.3H28.6a.649.649,0,0,1,.649.649v7.435L25.81,12.021a.649.649,0,0,0-.908,0l-5.424,5.288-2.751-2.692a.649.649,0,0,0-.908,0L3.3,26.826V7.946A.649.649,0,0,1,3.946,7.3Zm0,20.761H3.9L16.273,15.991,28.6,28.058ZM7.839,15.083A3.244,3.244,0,1,0,4.6,11.839,3.244,3.244,0,0,0,7.839,15.083Zm0-5.19a1.946,1.946,0,1,1-1.946,1.946A1.946,1.946,0,0,1,7.839,9.893Z" transform="translate(-2 -6)" fill="#c4c4c4"/>
</svg>
