<svg id="Link" xmlns="http://www.w3.org/2000/svg" width="25.366" height="25.178" viewBox="0 0 25.366 25.178">
  <path id="Path_25" data-name="Path 25" d="M15.647,19.241a6.819,6.819,0,0,1-4.742-2A6.592,6.592,0,0,1,9.033,11a.946.946,0,0,1,1.248-1,1.294,1.294,0,0,1,1,1.5A4.4,4.4,0,0,0,12.4,15.372,4.47,4.47,0,0,0,16.4,16.62a3.8,3.8,0,0,0,2-1c.125-.125.125-.125.25-.125l3.619-3.619a4.449,4.449,0,0,0,0-6.115,4.486,4.486,0,0,0-6.24-.125L14.15,7.51l-.125.125a1.342,1.342,0,0,1-1.747.25,1.342,1.342,0,0,1-.25-1.747c.25-.25.374-.374.5-.374L14.4,3.891a6.884,6.884,0,0,1,9.734,9.734l-3.619,3.619-.374.374a6.633,6.633,0,0,1-3.12,1.5c-.5,0-1,.125-1.373.125Z" transform="translate(-0.718 -1.925)" fill="#c4c4c4"/>
  <path id="Path_26" data-name="Path 26" d="M9.279,25.528a6.794,6.794,0,0,1-4.867-2A6.893,6.893,0,0,1,4.288,13.8l3.619-3.619c.25,0,.25-.125.374-.25a6.633,6.633,0,0,1,3.12-1.5,6.909,6.909,0,0,1,6.24,1.872,6.592,6.592,0,0,1,1.872,6.24,1.273,1.273,0,0,1-2.5-.5,4.4,4.4,0,0,0-1.123-3.869A4.47,4.47,0,0,0,11.9,10.926a3.8,3.8,0,0,0-2,1c-.125.125-.125.125-.25.125L6.035,15.669a4.413,4.413,0,0,0,6.24,6.24l1.872-1.872.125-.125a1.248,1.248,0,1,1,2,1.5l-.374.374-1.872,1.872a6.7,6.7,0,0,1-4.742,1.872Z" transform="translate(-2.337 -0.35)" fill="#c4c4c4"/>
</svg>
