<svg xmlns="http://www.w3.org/2000/svg" width="19.469" height="23.962" viewBox="0 0 19.469 23.962">
  <g id="lock" transform="translate(-12)">
    <path id="Path_82" data-name="Path 82" d="M41.478,11.232V6.365A6.579,6.579,0,0,0,34.739,0h0A6.579,6.579,0,0,0,28,6.365v4.867h2.246V6.739a4.459,4.459,0,0,1,4.493-4.493h0a4.459,4.459,0,0,1,4.493,4.493v4.493Z" transform="translate(-13.005 0)" fill="#9e9e9e"/>
    <path id="Path_83" data-name="Path 83" d="M14.3,60H29.174a2.3,2.3,0,0,1,2.3,2.3v5.378a5.054,5.054,0,0,1-5.054,5.054h-9.36A5.054,5.054,0,0,1,12,67.675V62.3A2.3,2.3,0,0,1,14.3,60Z" transform="translate(0 -48.768)" fill="#bdbdbd"/>
    <path id="Path_84" data-name="Path 84" d="M57.743,77.867a1.872,1.872,0,1,0-2.621,1.715V81.05a.749.749,0,0,0,1.5,0V79.582a1.872,1.872,0,0,0,1.123-1.715Z" transform="translate(-34.136 -61.768)" fill="#757575"/>
  </g>
</svg>
