<svg xmlns="http://www.w3.org/2000/svg" width="18.4" height="23" viewBox="0 0 18.4 23">
  <path id="logout" d="M4,13.5a.575.575,0,0,0,.575.575H14.687l-3.044,3.043a.575.575,0,1,0,.813.813l4.025-4.025h0a.575.575,0,0,0,0-.813L12.456,9.069a.575.575,0,0,0-.813.813l3.043,3.043H4.575A.575.575,0,0,0,4,13.5ZM19.525,2H6.875A2.878,2.878,0,0,0,4,4.875v4.6a.575.575,0,0,0,1.15,0v-4.6A1.727,1.727,0,0,1,6.875,3.15h12.65A1.727,1.727,0,0,1,21.25,4.875v17.25a1.727,1.727,0,0,1-1.725,1.725H6.875A1.727,1.727,0,0,1,5.15,22.125v-4.6a.575.575,0,0,0-1.15,0v4.6A2.878,2.878,0,0,0,6.875,25h12.65A2.878,2.878,0,0,0,22.4,22.125V4.875A2.878,2.878,0,0,0,19.525,2Z" transform="translate(-4 -2)" fill="rgba(0,0,0,0.88)"/>
</svg>
