<svg xmlns="http://www.w3.org/2000/svg" xmlns:xlink="http://www.w3.org/1999/xlink" width="109.828" height="47.5" viewBox="0 0 109.828 47.5">
  <defs>
    <clipPath id="clip-path">
      <path id="path18" d="M0-47.5H47.5V0H0Z"/>
    </clipPath>
  </defs>
  <g id="Group_1" data-name="Group 1" transform="translate(-28 -11)">
    <g id="g10" transform="translate(28 58.5)">
      <g id="g12">
        <g id="g14" clip-path="url(#clip-path)">
          <g id="g20" transform="translate(45.452 -9.777)">
            <path id="path22" d="M0,0C-10.73-30.849-14.764-30.849-16.7-30.849c-3.906,0-5.673,3.975-7.231,7.481-.125.281-.271.606-.424.942-.609,1.174-1.583,1.174-2.19,0-.154-.336-.3-.661-.425-.942-1.559-3.506-3.325-7.481-7.23-7.481-2.88,0-6.834,2.6-9.315,15.013a3.125,3.125,0,0,0,2.45,3.676,3.126,3.126,0,0,0,3.679-2.45C-36.7-16.9-35.2-21.689-35.2-21.689c.536-1.251,1.471-1.288,2.09-.1.155.341.3.671.43.955.229.515.464,1.039.707,1.56l0,.009c.244.52.5,1.035.769,1.532l0,0c1.3,2.4,2.993,4.375,5.747,4.375,3.325,0,5.1-2.883,6.515-5.9,0-.01.009-.02.014-.031.243-.516.474-1.035.7-1.546.114-.256.246-.55.384-.856.559-1.1,1.485-1,2.069.227,0,0,4.877,10.935,6.993,15.65C-7.776-3.191-6.8-.52-5.9,2.054a3.128,3.128,0,0,0,2.952,2.1,3.138,3.138,0,0,0,1.026-.174A3.127,3.127,0,0,0,0,0" fill="#4dacff"/>
          </g>
        </g>
      </g>
    </g>
    <path id="Path_1" data-name="Path 1" d="M.858-7.254C.858-2.756,3.77.234,7.41.234a5.681,5.681,0,0,0,4.784-2.34V0H15.86V-14.4H12.194v2.054a5.7,5.7,0,0,0-4.758-2.288C3.77-14.638.858-11.752.858-7.254ZM12.194-7.2c0,2.73-1.82,4.238-3.822,4.238-1.95,0-3.8-1.56-3.8-4.29a3.842,3.842,0,0,1,3.8-4.186C10.374-11.44,12.194-9.932,12.194-7.2Zm6.292-.052c0,4.5,2.912,7.488,6.578,7.488A5.444,5.444,0,0,0,29.8-2.132V0h3.692V-19.24H29.8V-12.4a5.91,5.91,0,0,0-4.706-2.236C21.4-14.638,18.486-11.752,18.486-7.254ZM29.822-7.2c0,2.73-1.82,4.238-3.822,4.238-1.95,0-3.8-1.56-3.8-4.29A3.842,3.842,0,0,1,26-11.44C28-11.44,29.822-9.932,29.822-7.2ZM37.05,0h3.64V-14.4H37.05ZM38.9-16.12a2.15,2.15,0,0,0,2.236-2.132A2.15,2.15,0,0,0,38.9-20.384a2.135,2.135,0,0,0-2.236,2.132A2.135,2.135,0,0,0,38.9-16.12ZM44.85-4.472C44.85-1.17,46.7,0,49.452,0H51.74V-3.068H50.05c-1.144,0-1.534-.416-1.534-1.378v-6.968H51.74V-14.4H48.516v-3.562H44.85V-14.4H43.134v2.99H44.85Zm10.088,0c0,3.3,1.846,4.472,4.6,4.472h2.288V-3.068h-1.69c-1.144,0-1.534-.416-1.534-1.378v-6.968h3.224V-14.4H58.6v-3.562H54.938V-14.4H53.222v2.99h1.716Z" transform="translate(76 44)" fill="#2d2d2d"/>
  </g>
</svg>
