<svg xmlns="http://www.w3.org/2000/svg" width="22" height="22" viewBox="0 0 22 22">
  <path id="new" d="M26.929,41.071c-.885-.885-.3-2.743-.748-3.832C25.714,36.111,24,35.2,24,34s1.714-2.111,2.18-3.239c.45-1.089-.137-2.947.748-3.832s2.743-.3,3.832-.748C31.889,25.714,32.8,24,34,24s2.111,1.714,3.239,2.18c1.089.45,2.947-.137,3.832.748s.3,2.743.748,3.832C42.287,31.889,44,32.8,44,34s-1.714,2.111-2.18,3.239c-.45,1.089.137,2.947-.748,3.832s-2.743.3-3.832.748C36.111,42.287,35.2,44,34,44s-2.111-1.714-3.239-2.18C29.672,41.369,27.814,41.956,26.929,41.071Z" transform="translate(-23 -23)" fill="none" stroke="#4dacff" stroke-linecap="round" stroke-linejoin="round" stroke-width="2"/>
</svg>
