<svg xmlns="http://www.w3.org/2000/svg" width="23" height="23" viewBox="0 0 23 23">
  <g id="post" transform="translate(-1.5 -1.5)">
    <path id="Path_75" data-name="Path 75" d="M4.238,4.6A1.643,1.643,0,0,0,2.6,6.238V21.571a1.643,1.643,0,0,0,1.643,1.643H19.571a1.643,1.643,0,0,0,1.643-1.643v-11.5h1.1v11.5a2.738,2.738,0,0,1-2.738,2.738H4.238A2.738,2.738,0,0,1,1.5,21.571V6.238A2.738,2.738,0,0,1,4.238,3.5h11.5V4.6Z" transform="translate(0 0.19)" fill="#4dacff" fill-rule="evenodd"/>
    <path id="Path_76" data-name="Path 76" d="M20.518,1.66a.548.548,0,0,1,.774,0l2.19,2.19a.548.548,0,0,1,0,.774l-8.762,8.762a.548.548,0,0,1-.214.132l-3.286,1.1a.548.548,0,0,1-.693-.693l1.1-3.286a.547.547,0,0,1,.132-.214Zm-7.9,9.445-.708,2.124,2.124-.708,8.283-8.283L20.9,2.822Z" transform="translate(0.857 0)" fill="#4dacff" fill-rule="evenodd"/>
  </g>
</svg>
