<svg xmlns="http://www.w3.org/2000/svg" width="20" height="26.639" viewBox="0 0 20 26.639">
  <g id="rocket" transform="translate(-5.976 -0.004)">
    <path id="Path_16" data-name="Path 16" d="M21.33,20a3.33,3.33,0,1,0,3.33,3.33A3.33,3.33,0,0,0,21.33,20Zm0,5.55a2.22,2.22,0,1,1,2.22-2.22A2.22,2.22,0,0,1,21.33,25.55Z" transform="translate(-5.351 -8.898)" fill="#4dacff"/>
    <path id="Path_17" data-name="Path 17" d="M25.859,20.354l-3.03-4.041A19.957,19.957,0,0,0,16.363.157a.555.555,0,0,0-.766,0A19.961,19.961,0,0,0,9.131,16.314c-3.275,4.368-3.141,4.107-3.141,4.374,0,4.562-.111,4.579.305,4.784s.25.2,4.329-2.864c.555,1.393.45,1.26,1.615,1.26.733,2.448.7,2.775,1.243,2.775h5c.555,0,.522-.361,1.243-2.775,1.16,0,1.038.144,1.615-1.26,4.079,3.042,3.819,2.925,4.079,2.925a.555.555,0,0,0,.555-.555C25.97,20.349,26.014,20.565,25.859,20.354ZM15.98,1.323a18.91,18.91,0,0,1,3.885,5.339h-7.77A18.909,18.909,0,0,1,15.98,1.323ZM7.1,20.87l2.22-2.942a19.725,19.725,0,0,0,.9,3.6L7.1,23.868Zm10.967,4.662H13.893l-.5-1.665h5.173Zm2-2.775h-3.53V21.092a.555.555,0,0,0-1.11,0v1.665h-3.53A18.871,18.871,0,0,1,11.6,7.772h8.758A18.871,18.871,0,0,1,20.065,22.757Zm4.8,1.11-3.114-2.342a19.725,19.725,0,0,0,.894-3.6l2.22,2.942Z" transform="translate(0 0)" fill="#4dacff"/>
  </g>
</svg>
