<svg xmlns="http://www.w3.org/2000/svg" width="23" height="23" viewBox="0 0 23 23">
  <path id="top" d="M23.85,25H3.15a1.15,1.15,0,1,1,0-2.3h20.7a1.15,1.15,0,0,1,0,2.3ZM11.2,20.4H5.45A1.15,1.15,0,0,1,4.3,19.25V3.15A1.15,1.15,0,0,1,5.45,2H11.2a1.15,1.15,0,0,1,1.15,1.15v16.1A1.15,1.15,0,0,1,11.2,20.4ZM10.05,4.3H6.6V18.1h3.45Zm11.5,16.1H15.8a1.15,1.15,0,0,1-1.15-1.15V7.75A1.15,1.15,0,0,1,15.8,6.6h5.75A1.15,1.15,0,0,1,22.7,7.75v11.5A1.15,1.15,0,0,1,21.55,20.4ZM20.4,8.9H16.95v9.2H20.4Z" transform="translate(-2 -2)" fill="#4dacff"/>
</svg>
